<svg width="14" height="14" viewBox="0 0 14 14" fill="none" xmlns="http://www.w3.org/2000/svg">
<path d="M6.125 12.6875C6.125 13.1688 6.51875 13.5625 7 13.5625C7.48125 13.5625 7.875 13.1688 7.875 12.6875H6.125Z" fill="#616466"/>
<path d="M5.44687 10.5H8.53125C8.70625 9.55937 9.29688 8.64062 9.90937 7.67812C10.6312 6.5625 11.375 5.40313 11.375 4.2875C11.375 2.16563 9.40625 0.4375 7 0.4375C4.59375 0.4375 2.625 2.16563 2.625 4.2875C2.625 5.40313 3.36875 6.5625 4.06875 7.67812C4.68125 8.64062 5.27187 9.55937 5.44687 10.5Z" fill="#FFCE31"/>
<path d="M5.77499 7.35001C5.79687 7.48126 5.84062 7.61251 5.86249 7.74376C5.92812 7.98438 5.97187 8.20313 6.03749 8.44375C6.23437 9.275 6.40937 9.975 6.56249 10.5219H6.69374C6.58437 9.975 6.43124 9.25313 6.23437 8.42188C6.19062 8.20313 6.12499 7.96251 6.08124 7.72188C6.05937 7.61251 6.03749 7.48126 5.99374 7.37188C6.16874 7.32813 6.58437 7.19688 6.99999 6.73751C7.41562 7.19688 7.83124 7.32813 8.00624 7.37188C7.98437 7.50313 7.96249 7.61251 7.91874 7.72188C7.87499 7.96251 7.80937 8.20313 7.76562 8.42188C7.56874 9.25313 7.41562 9.975 7.30624 10.5219H7.43749C7.56874 9.975 7.76562 9.275 7.96249 8.44375C8.00624 8.225 8.07187 7.98438 8.13749 7.74376C8.15937 7.61251 8.20312 7.48126 8.22499 7.35001C8.39999 7.32813 8.55312 7.28438 8.66249 7.17501C8.79374 7.04376 8.85937 6.89063 8.81562 6.71563C8.79374 6.62813 8.74999 6.51876 8.61874 6.49688C8.55312 6.47501 8.50937 6.47501 8.44374 6.49688C8.37812 6.51876 8.33437 6.56251 8.31249 6.58438C8.20312 6.71563 8.15937 6.84688 8.11562 6.97813L8.04999 7.17501C8.04999 7.17501 7.87499 7.19688 7.45937 6.91251C7.24062 6.75938 7.17499 6.65001 7.10937 6.58438C7.17499 6.49688 7.24062 6.43126 7.30624 6.32188C7.32812 6.25626 7.34999 6.21251 7.37187 6.12501C7.37187 6.05938 7.37187 5.97188 7.32812 5.90626C7.28437 5.84063 7.24062 5.77501 7.13124 5.73126C7.08749 5.70938 7.04374 5.70938 6.99999 5.70938C6.95624 5.70938 6.91249 5.70938 6.86874 5.73126C6.78124 5.77501 6.71562 5.84063 6.67187 5.90626C6.62812 5.97188 6.62812 6.05938 6.62812 6.12501C6.62812 6.19063 6.64999 6.25626 6.69374 6.32188C6.73749 6.43126 6.80312 6.51876 6.89062 6.58438C6.82499 6.65001 6.75937 6.75938 6.54062 6.91251C6.14687 7.17501 5.94999 7.17501 5.94999 7.17501L5.88437 6.97813C5.84062 6.84688 5.79687 6.71563 5.68749 6.58438C5.66562 6.56251 5.62187 6.51876 5.55624 6.49688C5.49062 6.47501 5.42499 6.47501 5.38124 6.49688C5.24999 6.54063 5.20624 6.65001 5.18437 6.71563C5.16249 6.89063 5.22812 7.04376 5.33749 7.17501C5.46874 7.28438 5.62187 7.32813 5.77499 7.35001ZM8.31249 7.02188C8.35624 6.91251 8.39999 6.78126 8.48749 6.71563C8.50937 6.69376 8.53124 6.69376 8.53124 6.69376H8.57499C8.59687 6.69376 8.61874 6.71563 8.64062 6.78126C8.66249 6.86876 8.61874 7.00001 8.53124 7.06563C8.46562 7.10938 8.37812 7.15313 8.29062 7.17501C8.29062 7.10938 8.29062 7.06563 8.31249 7.02188ZM6.86874 5.97188C6.91249 5.92813 6.95624 5.88438 6.99999 5.88438C7.04374 5.88438 7.08749 5.90626 7.13124 5.97188C7.17499 6.03751 7.15312 6.12501 7.10937 6.21251C7.08749 6.27813 7.04374 6.34376 6.99999 6.38751C6.95624 6.32188 6.91249 6.27813 6.89062 6.21251C6.84687 6.14688 6.82499 6.05938 6.86874 5.97188ZM5.38124 6.73751C5.38124 6.69376 5.40312 6.67188 5.44687 6.65001H5.49062C5.49062 6.65001 5.51249 6.67188 5.53437 6.67188C5.59999 6.73751 5.66562 6.86876 5.70937 6.97813C5.73124 7.02188 5.73124 7.06563 5.75312 7.10938C5.66562 7.08751 5.57812 7.06563 5.51249 7.00001C5.42499 6.95626 5.38124 6.84688 5.38124 6.73751Z" fill="#C79127"/>
<path d="M5.44684 10.9375H8.57496V11.3313H5.44684V10.9375Z" fill="#94989B"/>
<path d="M5.66559 11.725H8.35621V12.1187H5.66559V11.725Z" fill="#94989B"/>
<path d="M5.66559 11.3313H8.35621V11.725H5.66559V11.3313Z" fill="#616466"/>
<path d="M8.57496 10.9375L5.66559 11.725V12.1406L8.57496 11.3312V10.9375Z" fill="#94989B"/>
<path d="M5.88434 12.5344H8.13746V12.9281H5.88434V12.5344Z" fill="#94989B"/>
<path d="M5.88434 12.1406H8.13746V12.5344H5.88434V12.1406Z" fill="#616466"/>
<path d="M8.35621 11.725L5.88434 12.5344V12.95L8.35621 12.1406V11.725Z" fill="#94989B"/>
</svg>
