<svg width="24" height="24" viewBox="0 0 24 24" fill="none" xmlns="http://www.w3.org/2000/svg">
<path d="M18.225 12.3L15.75 14.0625C15.75 14.0625 14.5125 10.6125 13.575 8.40001C13.2 7.50001 12 7.20001 11.4375 5.92501C10.4625 3.75001 11.625 1.87501 12.75 3.22501C14.0625 4.80001 16.0125 5.96251 16.425 6.86251C17.0625 8.36251 18.225 12.3 18.225 12.3Z" fill="#FED0AC"/>
<path d="M20.175 13.725C20.3625 14.925 20.2125 16.7625 19.1625 18.9375C19.1625 18.9375 17.025 16.3875 16.7625 15.1875C16.7625 15.1875 16.1625 10.725 15.525 7.875C15.2625 6.7125 13.9125 6.0375 13.575 4.3875C12.975 1.5375 14.775 -0.449998 15.825 1.4625C17.025 3.675 19.05 5.55 19.3125 6.7125C19.7625 8.7 19.95 12 20.175 13.725Z" fill="#FED0AC"/>
<path d="M17.025 11.475C17.025 11.475 16.8375 9.7875 16.2 6.9375C15.9375 5.775 14.5875 5.1 14.25 3.45C14.025 2.475 14.1 1.575 14.3625 0.9375C13.725 1.425 13.2 2.775 13.5375 4.425C13.875 6.075 15.2625 6.75 15.4875 7.9125C15.75 9.15 15.975 10.425 15.975 10.425L14.1 9.7125L17.025 11.475Z" fill="#E0A372"/>
<path d="M19.275 13.275C16.8 11.025 14.025 9.6375 12.225 8.775C9.56249 7.4625 10.275 9.2625 5.73749 10.4625C5.13749 10.6125 4.42499 11.0625 4.98749 12.1875C5.51249 13.275 9.78749 12.45 10.4625 11.8125C10.4625 11.8125 12.2625 14.025 14.0625 13.95C14.0625 13.95 13.7625 15.4125 14.175 16.125C14.175 16.125 11.625 17.4375 10.5375 18.6L7.53749 16.575C7.31249 13.4625 6.74999 12.525 5.21249 12.675C3.78749 12.825 3.93749 14.175 3.97499 15.2625C4.01249 17.25 3.48749 17.5875 3.97499 18.375C5.81249 21.375 8.17499 23.25 12.525 23.25C14.1375 23.25 15.1875 23.2125 16.2 22.725C17.85 21.8625 22.0125 15.7875 19.275 13.275Z" fill="#FED0AC"/>
<path d="M19.7625 13.875C20.7 16.725 17.3625 21.4125 15.9 22.125C14.8875 22.6125 13.875 22.65 12.225 22.65C7.9125 22.65 5.5875 20.8125 3.75 17.85C3.7875 18 3.8625 18.1875 3.9375 18.3375C5.8125 21.375 8.175 23.25 12.525 23.25C14.1375 23.25 15.1875 23.2125 16.2 22.725C17.7375 21.9375 21.45 16.65 19.7625 13.875Z" fill="#E0A372"/>
<path d="M6.97496 16.65C6.97496 16.65 9.78746 18.45 10.4625 18.5625L7.49996 16.575C7.61246 13.425 6.71246 12.4125 5.17496 12.675C5.06246 12.7125 4.94996 12.7125 4.83746 12.75C6.37496 12.5625 7.08746 13.575 6.97496 16.65Z" fill="#E0A372"/>
<path d="M10.4625 11.8125C10.4625 11.8125 12.2625 13.9875 14.0625 13.95V13.5375C12.2625 13.575 10.4625 11.4 10.4625 11.4C9.78749 12.075 5.51249 12.9 4.98749 11.775C4.91249 11.5875 4.83749 11.4 4.79999 11.25C4.76249 11.475 4.79999 11.775 4.98749 12.1875C5.51249 13.275 9.78749 12.45 10.4625 11.8125Z" fill="#E0A372"/>
</svg>
